<svg width="139" height="130" fill="none" xmlns="http://www.w3.org/2000/svg"><path d="M85.695.002a2.17 2.17 0 0 0-2.076 2.26l.292 6.93a2.169 2.169 0 0 0 2.166 2.08c.032 0 .061 0 .093-.003a2.17 2.17 0 0 0 2.077-2.259l-.293-6.931A2.149 2.149 0 0 0 85.696.002Z" fill="url(#a)"/><path d="M103.808 7.071a2.175 2.175 0 0 0-3.07-.002l-4.903 4.906a2.169 2.169 0 1 0 3.068 3.068l4.903-4.901c.847-.848.848-2.221.002-3.07Z" fill="url(#b)"/><path d="m101.685 26.966 6.929.29c.031.003.061.003.093.003a2.17 2.17 0 0 0 .089-4.338l-6.933-.29c-.03-.003-.06-.003-.091-.003a2.17 2.17 0 0 0-.087 4.338Z" fill="url(#c)"/><path d="M136.7 110.987h-5.216V36.394c0-3.508-2.863-6.36-6.381-6.36H98.814c.461-4.728-1.113-9.616-4.724-13.228-5.9-5.9-15.191-6.362-21.642-1.42L57.86.796a2.17 2.17 0 0 0-1.61-.633c-.06.002-.12.024-.18.03-.137.016-.276.028-.413.07a2.176 2.176 0 0 0-1.475 1.719l-4.557 28.05-35.856.001c-3.518 0-6.38 2.852-6.38 6.36v74.593h-5.22c-1.199 0-2.169.97-2.169 2.169v4.162C0 124.311 5.69 130 12.682 130h113.504c6.993 0 12.682-5.689 12.682-12.682v-4.162c0-1.199-.97-2.169-2.17-2.169h.002ZM91.023 19.873c4.198 4.198 4.655 10.741 1.38 15.464L75.54 18.477c4.726-3.272 11.278-2.806 15.482 1.396ZM70.31 80.701c.847.848 2.22.848 3.068 0l3.37-3.369 3.983 3.984-3.37 3.37a2.169 2.169 0 1 0 3.069 3.067l3.369-3.369 2.252 2.253a4.769 4.769 0 0 1 0 6.738 4.776 4.776 0 0 1-6.74 0L61.319 75.383l6.74-6.739 5.62 5.62-3.37 3.37a2.169 2.169 0 0 0 0 3.067Zm-15.268-5.178c-1.127 1.125-3.085 1.13-4.214 0L35.353 60.05a2.988 2.988 0 0 1 0-4.217L50.618 40.57l19.69 19.69-15.266 15.263Zm-11.658-1.308-3.38 3.38a4.76 4.76 0 0 1-6.721 0 4.759 4.759 0 0 1 0-6.724l3.377-3.377 6.724 6.721ZM74.13 57.944 52.935 36.75l2.873-17.696L91.833 55.08 74.13 57.944Zm29.901-4.84-6.916 1.119-40.449-40.446 1.123-6.916 46.242 46.243Zm-92.3-16.712c0-1.132.897-2.02 2.041-2.02h35.151l-.34 2.097-16.298 16.296c-2.854 2.856-2.852 7.501 0 10.353l1.308 1.308-3.378 3.377c-3.545 3.545-3.545 9.315 0 12.86 3.545 3.541 9.313 3.545 12.858 0l3.38-3.38 1.307 1.308a7.31 7.31 0 0 0 10.351 0l.14-.14 17.992 17.992c3.552 3.552 9.326 3.552 12.878 0 3.549-3.549 3.549-9.325 0-12.875L71.128 65.576l3.28-3.28 34.506-5.586a2.17 2.17 0 0 0 1.187-3.676L95.497 38.43a16.343 16.343 0 0 0 2.283-4.057h27.326c1.145 0 2.041.888 2.041 2.02v74.593l-42.144-.001a2.17 2.17 0 0 0-1.703.826l-5.13 6.51H60.703a6878.199 6878.199 0 0 1-5.113-6.489 2.168 2.168 0 0 0-1.72-.847H11.73V36.392Zm122.802 80.926c0 4.6-3.742 8.343-8.342 8.343H12.687c-4.6 0-8.343-3.743-8.343-8.343v-1.992h48.561c.93 1.293 2.498 3.283 5.044 6.51a2.17 2.17 0 0 0 1.703.826h19.573a2.17 2.17 0 0 0 1.704-.826l5.13-6.51h48.476l-.002 1.992Z" fill="url(#d)"/><defs><linearGradient id="a" x1="11" y1="127.003" x2="132.851" y2="8" gradientUnits="userSpaceOnUse"><stop stop-color="#0AB9B8"/><stop offset="1" stop-color="#126879"/></linearGradient><linearGradient id="b" x1="11" y1="127.003" x2="132.851" y2="8" gradientUnits="userSpaceOnUse"><stop stop-color="#0AB9B8"/><stop offset="1" stop-color="#126879"/></linearGradient><linearGradient id="c" x1="11" y1="127.003" x2="132.851" y2="8" gradientUnits="userSpaceOnUse"><stop stop-color="#0AB9B8"/><stop offset="1" stop-color="#126879"/></linearGradient><linearGradient id="d" x1="11" y1="127.003" x2="132.851" y2="8" gradientUnits="userSpaceOnUse"><stop stop-color="#0AB9B8"/><stop offset="1" stop-color="#126879"/></linearGradient></defs></svg>