<svg width="127" height="127" fill="none" xmlns="http://www.w3.org/2000/svg"><path d="M97.367 127c-16.299 0-29.634-13.335-29.634-29.633 0-16.299 13.335-29.634 29.634-29.634 16.298 0 29.633 13.335 29.633 29.634C127 113.665 113.665 127 97.367 127Zm0-55.033c-13.97 0-25.4 11.43-25.4 25.4 0 13.97 11.43 25.4 25.4 25.4 13.97 0 25.4-11.43 25.4-25.4 0-13.97-11.43-25.4-25.4-25.4Z" fill="url(#a)"/><path d="M111.547 82.126c-2.328-2.328-6.562-2.328-8.89 0l-18.415 18.415-2.328 11.219 11.218-2.329 18.415-18.415c1.27-1.27 1.905-2.751 1.905-4.445 0-1.693-.635-3.386-1.905-4.445Zm-20.531 23.495-3.81.847.846-3.81 12.912-12.912 2.963 2.964-12.912 12.911Zm17.568-17.568-1.482 1.482-2.963-2.964 1.481-1.481c.847-.847 2.117-.847 2.964 0 .423.423.635.846.635 1.481 0 .635-.212 1.059-.635 1.482Z" fill="url(#b)"/><path d="M0 0v93.133h63.713c.212-1.481.635-2.751.846-4.233H4.233V21.167h105.834V66.04c1.481.635 2.963 1.27 4.233 2.117V0H0Zm4.233 4.233h88.9v12.7h-88.9v-12.7Zm93.134 12.7v-12.7h12.7v12.7h-12.7Z" fill="url(#c)"/><path d="M29.633 29.634V25.4H25.4c-4.657 0-8.467 3.81-8.467 8.467v6.35A4.246 4.246 0 0 1 12.7 44.45H8.467v4.234H12.7a4.246 4.246 0 0 1 4.233 4.233v6.35c0 4.657 3.81 8.467 8.467 8.467h4.233V63.5H25.4a4.246 4.246 0 0 1-4.233-4.233v-8.043c0-1.694-.635-3.387-1.905-4.445l-.212-.212.212-.212c1.27-1.27 1.905-2.751 1.905-4.445v-8.043a4.246 4.246 0 0 1 4.233-4.233h4.233Z" fill="url(#d)"/><path d="M38.1 29.634V25.4h4.233c4.657 0 8.467 3.81 8.467 8.467v6.35a4.246 4.246 0 0 0 4.233 4.233h4.233v4.234h-4.233a4.246 4.246 0 0 0-4.233 4.233v6.35c0 4.657-3.81 8.467-8.467 8.467H38.1V63.5h4.233a4.246 4.246 0 0 0 4.233-4.233v-8.043c0-1.694.635-3.387 1.905-4.445l.212-.212-.212-.212c-1.27-1.27-1.905-2.751-1.905-4.445v-8.043a4.246 4.246 0 0 0-4.233-4.233H38.1Z" fill="url(#e)"/><defs><linearGradient id="a" x1="38.999" y1="61.992" x2="71.155" y2="48.604" gradientUnits="userSpaceOnUse"><stop stop-color="#0AB9B7"/><stop offset="1" stop-color="#126878"/></linearGradient><linearGradient id="b" x1="38.999" y1="61.992" x2="71.155" y2="48.604" gradientUnits="userSpaceOnUse"><stop stop-color="#0AB9B7"/><stop offset="1" stop-color="#126878"/></linearGradient><linearGradient id="c" x1="38.999" y1="61.992" x2="71.155" y2="48.604" gradientUnits="userSpaceOnUse"><stop stop-color="#0AB9B7"/><stop offset="1" stop-color="#126878"/></linearGradient><linearGradient id="d" x1="38.999" y1="61.992" x2="71.155" y2="48.604" gradientUnits="userSpaceOnUse"><stop stop-color="#0AB9B7"/><stop offset="1" stop-color="#126878"/></linearGradient><linearGradient id="e" x1="38.999" y1="61.992" x2="71.155" y2="48.604" gradientUnits="userSpaceOnUse"><stop stop-color="#0AB9B7"/><stop offset="1" stop-color="#126878"/></linearGradient></defs></svg>