<svg width="125" height="116" fill="none" xmlns="http://www.w3.org/2000/svg"><path d="M25.913 46.389h-8.338a1.944 1.944 0 0 0-1.953 1.934V67.66c0 .513.206 1.005.572 1.368.366.362.863.566 1.381.566h8.338a27.918 27.918 0 0 0 2.654 5.123l.227.372-6.74 6.674a1.922 1.922 0 0 0 0 2.734l13.67 13.536c.763.755 2 .755 2.762 0l6.74-6.673.377.225v-.001a28.41 28.41 0 0 0 5.173 2.628v8.255c0 .513.206 1.005.572 1.368.366.362.863.566 1.381.566h19.53c.518 0 1.015-.204 1.381-.566.367-.363.572-.855.572-1.368v-8.255a28.411 28.411 0 0 0 5.174-2.628l.377-.225 6.74 6.674c.762.755 1.998.755 2.761 0l13.671-13.536a1.922 1.922 0 0 0 0-2.734l-6.74-6.674.228-.373h-.001a27.918 27.918 0 0 0 2.654-5.122h8.337c.518 0 1.015-.204 1.382-.566.366-.363.571-.855.571-1.368V48.323c0-.513-.205-1.005-.571-1.368a1.967 1.967 0 0 0-1.382-.566h-8.337a27.918 27.918 0 0 0-2.654-5.123l-.227-.373 6.74-6.673a1.922 1.922 0 0 0 0-2.735L89.265 17.95c-.764-.754-2-.754-2.763 0l-6.74 6.673-.376-.224a28.401 28.401 0 0 0-5.174-2.627v-8.255c0-.513-.205-1.005-.572-1.368a1.963 1.963 0 0 0-1.38-.566H52.73a1.944 1.944 0 0 0-1.954 1.934v8.255a28.398 28.398 0 0 0-5.174 2.628l-.376.224-6.74-6.673c-.763-.755-1.999-.755-2.762 0l-13.67 13.535a1.922 1.922 0 0 0 0 2.735l6.739 6.673-.227.373a27.927 27.927 0 0 0-2.653 5.123Zm6.714-7.169-6.432-6.367 10.91-10.802 6.431 6.367v.001c.624.618 1.59.745 2.356.31.605-.347 1.172-.687 1.732-1.022a21.299 21.299 0 0 1 5.619-2.657c.85-.23 1.44-.994 1.44-1.866V15.45h15.623v7.735c0 .872.59 1.637 1.44 1.866a21.294 21.294 0 0 1 5.618 2.657c.555.335 1.127.675 1.733 1.021a1.969 1.969 0 0 0 2.355-.309l6.431-6.368 10.91 10.802-6.43 6.367h-.002a1.92 1.92 0 0 0-.312 2.333c.35.599.693 1.16 1.032 1.715a20.91 20.91 0 0 1 2.683 5.563 1.951 1.951 0 0 0 1.885 1.425h7.812v15.47h-7.812c-.881 0-1.653.584-1.885 1.425a20.906 20.906 0 0 1-2.683 5.564 80.434 80.434 0 0 0-1.032 1.715 1.92 1.92 0 0 0 .312 2.332l6.432 6.368-10.91 10.802-6.43-6.367v-.001a1.969 1.969 0 0 0-2.356-.31c-.605.347-1.172.687-1.733 1.022a21.302 21.302 0 0 1-5.618 2.656c-.85.23-1.44.995-1.44 1.867v7.735H54.682v-7.735c0-.872-.59-1.637-1.44-1.867a21.296 21.296 0 0 1-5.618-2.656 81.906 81.906 0 0 0-1.732-1.021 1.969 1.969 0 0 0-2.356.309l-6.43 6.368-10.91-10.802 6.43-6.367h.001a1.92 1.92 0 0 0 .312-2.333c-.35-.6-.693-1.16-1.031-1.716a20.908 20.908 0 0 1-2.683-5.562 1.951 1.951 0 0 0-1.885-1.426h-7.812v-15.47h7.812c.88 0 1.653-.583 1.885-1.425a20.903 20.903 0 0 1 2.683-5.563 80.93 80.93 0 0 0 1.031-1.715 1.921 1.921 0 0 0-.312-2.333Z" fill="url(#a)"/><path d="M62.493 83.13a25.519 25.519 0 0 0 17.953-7.363 25.014 25.014 0 0 0 7.436-17.775 25.014 25.014 0 0 0-7.436-17.776 25.518 25.518 0 0 0-17.953-7.363 25.518 25.518 0 0 0-17.953 7.363 25.014 25.014 0 0 0-7.436 17.776 25.044 25.044 0 0 0 7.445 17.767 25.548 25.548 0 0 0 17.944 7.371Zm0-46.41a21.593 21.593 0 0 1 15.191 6.23 21.165 21.165 0 0 1 6.293 15.042 21.166 21.166 0 0 1-6.293 15.04 21.591 21.591 0 0 1-15.19 6.23 21.592 21.592 0 0 1-15.191-6.23 21.165 21.165 0 0 1-6.293-15.04 21.193 21.193 0 0 1 6.3-15.034 21.62 21.62 0 0 1 15.183-6.237Z" fill="url(#b)"/><path d="M123.572 34.858a1.966 1.966 0 0 0-2.414 1.328l-2.027 7c-3.412-12.786-11.134-24.033-21.887-31.878C86.49 3.462 73.352-.51 60.01.052c-13.346.56-26.095 5.62-36.139 14.34-10.042 8.718-16.774 20.574-19.08 33.6-.087.505.03 1.024.329 1.444.298.42.752.704 1.263.792a1.952 1.952 0 0 0 2.258-1.575c2.157-12.21 8.48-23.317 17.916-31.466C35.99 9.04 47.964 4.344 60.474 3.886c12.51-.458 24.802 3.35 34.817 10.787 10.016 7.436 17.151 18.052 20.211 30.071l-6.835-5.645a1.967 1.967 0 0 0-2.752.248c-.69.821-.579 2.041.25 2.725l11.718 9.668c.35.29.792.448 1.248.45.199 0 .396-.03.586-.086a1.94 1.94 0 0 0 1.302-1.318l3.906-13.537a1.913 1.913 0 0 0-.174-1.474 1.951 1.951 0 0 0-1.179-.917Z" fill="url(#c)"/><path d="M118.492 65.755a1.959 1.959 0 0 0-1.459.321 1.923 1.923 0 0 0-.795 1.253c-2.127 12.194-8.421 23.295-17.825 31.443-9.405 8.149-21.352 12.853-33.84 13.323a54.913 54.913 0 0 1-34.765-10.737C19.804 93.94 12.677 83.345 9.619 71.346l6.703 5.535c.83.683 2.062.572 2.753-.249a1.923 1.923 0 0 0-.25-2.726L7.107 64.237a1.969 1.969 0 0 0-1.825-.358c-.63.193-1.12.688-1.3 1.316L.076 78.73a1.93 1.93 0 0 0 1.34 2.39c.175.047.354.073.534.073a1.95 1.95 0 0 0 1.877-1.403L5.91 72.58c3.335 12.815 11.007 24.11 21.735 32.005 10.729 7.892 23.867 11.904 37.221 11.367 13.355-.537 26.12-5.59 36.168-14.319 10.046-8.727 16.768-20.603 19.042-33.642a1.935 1.935 0 0 0-1.583-2.236Z" fill="url(#d)"/><path d="M53.704 73.205a1.953 1.953 0 0 0 1.953-.006l23.436-13.536c.601-.346.97-.983.97-1.671a1.93 1.93 0 0 0-.97-1.673L55.657 42.783a1.969 1.969 0 0 0-1.952 0 1.93 1.93 0 0 0-.978 1.673v27.072c0 .692.372 1.332.977 1.677Zm2.93-25.382 17.608 10.17-17.609 10.17v-20.34Z" fill="url(#e)"/><defs><linearGradient id="a" x1="56.084" y1="67.275" x2="79.751" y2="49.966" gradientUnits="userSpaceOnUse"><stop stop-color="#0AB9B9"/><stop offset="1" stop-color="#117583"/></linearGradient><linearGradient id="b" x1="56.084" y1="67.275" x2="79.751" y2="49.966" gradientUnits="userSpaceOnUse"><stop stop-color="#0AB9B9"/><stop offset="1" stop-color="#117583"/></linearGradient><linearGradient id="c" x1="56.084" y1="67.275" x2="79.751" y2="49.966" gradientUnits="userSpaceOnUse"><stop stop-color="#0AB9B9"/><stop offset="1" stop-color="#117583"/></linearGradient><linearGradient id="d" x1="56.084" y1="67.275" x2="79.751" y2="49.966" gradientUnits="userSpaceOnUse"><stop stop-color="#0AB9B9"/><stop offset="1" stop-color="#117583"/></linearGradient><linearGradient id="e" x1="56.084" y1="67.275" x2="79.751" y2="49.966" gradientUnits="userSpaceOnUse"><stop stop-color="#0AB9B9"/><stop offset="1" stop-color="#117583"/></linearGradient></defs></svg>