<svg width="79" height="79" fill="none" xmlns="http://www.w3.org/2000/svg"><path fill-rule="evenodd" clip-rule="evenodd" d="M39.49.002h-.006l-.025.002a.92.92 0 0 0-.874.82C34.512 21.736 22.897 34.94.838 38.59a.918.918 0 0 0-.816.714l-.002.009a.838.838 0 0 0-.013.078l-.002.021a.705.705 0 0 0-.005.106c0 .016 0 .03.002.046a.674.674 0 0 0 .006.063c0 .007.002.014.003.02a.918.918 0 0 0 .835.775c22.05 3.653 33.663 16.85 37.737 37.75a.918.918 0 0 0 .825.83h.126a.919.919 0 0 0 .88-.821c4.082-20.91 15.688-34.111 37.745-37.763.4-.034.731-.323.819-.714l.002-.009a.838.838 0 0 0 .02-.206c0-.015 0-.03-.002-.045a.68.68 0 0 0-.006-.063l-.003-.021a.919.919 0 0 0-.833-.775C56.106 34.93 44.5 21.734 40.416.833a.918.918 0 0 0-.826-.829h-.01L39.527 0A.721.721 0 0 0 39.49 0v.002Z" fill="#1BCFDA"/></svg>